<svg id="Layer_1" data-name="Layer 1" xmlns="http://www.w3.org/2000/svg" viewBox="0 0 40.79 7.48"><title>logo</title><path d="M0,0.12H1.82a1.41,1.41,0,0,1,.59.14,1.15,1.15,0,0,1,.64.86,2.81,2.81,0,0,1,.06.56c0,1.4,0,2.8,0,4.19a1.87,1.87,0,0,1-.13.7,1.16,1.16,0,0,1-.91.73,2.66,2.66,0,0,1-.49,0H0V0.12ZM1.2,1.29V6.19c0.16,0,.31,0,0.47,0A0.23,0.23,0,0,0,1.87,6a0.91,0.91,0,0,0,0-.24q0-2,0-4.06a1,1,0,0,0,0-.16,0.28,0.28,0,0,0-.23-0.26C1.51,1.28,1.36,1.29,1.2,1.29Z"/><path d="M37.67,7.36V0.13h1.83a1.41,1.41,0,0,1,.59.14,1.14,1.14,0,0,1,.64.85,2.84,2.84,0,0,1,.06.57c0,1.39,0,2.79,0,4.18a1.86,1.86,0,0,1-.14.74,1.16,1.16,0,0,1-.89.7,2.53,2.53,0,0,1-.47,0H37.67Zm1.21-6.07V6.2h0.44A0.25,0.25,0,0,0,39.54,6a0.86,0.86,0,0,0,0-.24q0-2,0-4.06a1,1,0,0,0,0-.16,0.29,0.29,0,0,0-.24-0.26C39.18,1.27,39,1.28,38.87,1.28Z"/><path d="M24.84,5.86H24l-0.2,1.5H22.54l0-.29c0.05-.4.1-0.79,0.16-1.19s0.15-1.06.22-1.59,0.15-.94.22-1.41L23.4,1.47c0.07-.43.14-0.86,0.2-1.3A0.05,0.05,0,0,1,23.67.12h1.46a0.05,0.05,0,0,1,.06.06l0.27,1.71c0.09,0.58.19,1.17,0.28,1.75s0.16,1.05.23,1.58,0.13,1,.2,1.47l0.09,0.67H25.11A0.07,0.07,0,0,1,25,7.29C25,6.89,24.92,6.5,24.87,6.1ZM24.68,4.69L24.4,2.57h0L24.11,4.69h0.57Z"/><path d="M9.51,4.89c0,0.33,0,.65,0,1a1,1,0,0,0,0,.17,0.32,0.32,0,0,0,.37.28A0.3,0.3,0,0,0,10.21,6c0-.33,0-0.65,0-1a0.67,0.67,0,0,0-.15-0.36,2.9,2.9,0,0,0-.6-0.59c-0.19-.16-0.4-0.3-0.58-0.48a1.84,1.84,0,0,1-.56-1,1.66,1.66,0,0,1,0-.28c0-.33,0-0.65,0-1A1.45,1.45,0,0,1,8.57.55,1.21,1.21,0,0,1,9.33.06a2.39,2.39,0,0,1,1.09,0,1.21,1.21,0,0,1,1,1,2.86,2.86,0,0,1,0,.46c0,0.34,0,.68,0,1H10.22s0,0,0-.07q0-.45,0-0.9a1.23,1.23,0,0,0,0-.16,0.36,0.36,0,0,0-.57-0.24,0.34,0.34,0,0,0-.13.29c0,0.24,0,.49,0,0.74a0.64,0.64,0,0,0,.14.35,2.53,2.53,0,0,0,.52.53c0.18,0.14.37,0.28,0.55,0.43a2,2,0,0,1,.67,1.11,1.7,1.7,0,0,1,0,.3c0,0.34,0,.69,0,1a1.82,1.82,0,0,1-.17.78,1.16,1.16,0,0,1-.79.63,2.31,2.31,0,0,1-1.21,0,1.19,1.19,0,0,1-.9-1,2.89,2.89,0,0,1-.05-0.5c0-.32,0-0.65,0-1,0,0,0-.06.06-0.06H9.51Z"/><path d="M29.81,4.88H31s0,0,0,.06c0,0.35,0,.7,0,1a2,2,0,0,1-.1.62,1.17,1.17,0,0,1-.83.79,2.29,2.29,0,0,1-1.24,0,1.18,1.18,0,0,1-.9-1,2.86,2.86,0,0,1-.05-0.54q0-2.13,0-4.27A2.34,2.34,0,0,1,28,.93,1.17,1.17,0,0,1,28.83.09a2.29,2.29,0,0,1,1.25,0A1.18,1.18,0,0,1,31,1a2.72,2.72,0,0,1,.05.49c0,0.33,0,.66,0,1,0,0,0,0,0,.07H29.81s0-.06,0-0.08q0-.47,0-0.94a0.75,0.75,0,0,0,0-.13,0.33,0.33,0,0,0-.41-0.28,0.32,0.32,0,0,0-.29.34s0,0.05,0,.08q0,2.15,0,4.3a1,1,0,0,0,0,.13,0.32,0.32,0,0,0,.41.29A0.3,0.3,0,0,0,29.8,6c0-.34,0-0.67,0-1C29.81,4.95,29.81,4.92,29.81,4.88Z"/><path d="M14.61,4.33v3h-1.2V0.13h0c0.56,0,1.13,0,1.69,0a1.23,1.23,0,0,1,1,.45,1.33,1.33,0,0,1,.28.72c0,0.25,0,.5,0,0.75s0,0.51,0,.76a1.5,1.5,0,0,1-.3.94,1.47,1.47,0,0,1-1,.54C15,4.31,14.8,4.32,14.61,4.33Zm0-3V3.15h0.32a0.31,0.31,0,0,0,.28-0.25,0.4,0.4,0,0,0,0-.09c0-.4,0-0.79,0-1.19A0.3,0.3,0,0,0,15,1.29,3.23,3.23,0,0,0,14.62,1.28Z"/><path d="M34.16,3.16h1.4V4.32h-1.4V6.2h1.62V7.36H33V0.12h2.83V1.27H34.16V3.16Z"/><path d="M18.31,0.12h1.2V6.2h1.63V7.36H18.31V0.12Z"/><path d="M6.32,7.36H5.12V0.12h1.2V7.36Z"/></svg>